<?xml version="1.0" standalone="no"?>
<!DOCTYPE svg PUBLIC "-//W3C//DTD SVG 20010904//EN"
 "http://www.w3.org/TR/2001/REC-SVG-20010904/DTD/svg10.dtd">
<svg version="1.0" xmlns="http://www.w3.org/2000/svg"
 width="1200.000000pt" height="1200.000000pt" viewBox="0 0 1200.000000 1200.000000"
 preserveAspectRatio="xMidYMid meet">
<metadata>
Created by potrace 1.16, written by Peter Selinger 2001-2019
</metadata>
<g transform="translate(0.000000,1200.000000) scale(0.100000,-0.100000)"
fill="#000000" stroke="none">
<path d="M1200 6450 l0 -1950 1800 0 1800 0 0 75 0 75 -1725 0 -1725 0 0 1800
0 1800 4650 0 4650 0 0 -1800 0 -1800 -1725 0 -1725 0 0 -75 0 -75 1800 0
1800 0 0 1950 0 1950 -4800 0 -4800 0 0 -1950z"/>
<path d="M5714 7040 c-55 -23 -71 -99 -30 -147 53 -61 156 -21 156 62 0 63
-69 110 -126 85z"/>
<path d="M6874 7040 c-55 -23 -71 -99 -30 -147 53 -61 156 -21 156 62 0 63
-69 110 -126 85z"/>
<path d="M4120 6995 c-15 -18 -8 -77 14 -110 l15 -23 74 29 c41 15 93 32 116
38 l41 9 0 -408 c0 -395 1 -408 20 -433 27 -34 76 -43 125 -23 32 14 36 19 29
38 -4 13 -9 204 -11 425 l-4 401 23 -5 c44 -9 153 -46 180 -59 25 -13 29 -12
43 10 9 13 19 40 22 60 11 67 18 66 -347 66 -280 0 -329 -2 -340 -15z"/>
<path d="M4944 6745 c-19 -19 -24 -34 -22 -58 3 -28 7 -32 33 -32 51 0 55 -22
55 -292 0 -133 3 -249 6 -258 11 -27 62 -47 104 -40 55 9 63 22 49 85 -7 33
-9 118 -6 229 5 198 18 253 69 296 36 30 61 32 89 4 17 -17 20 -30 17 -67 -3
-26 -8 -54 -12 -64 -14 -31 76 -42 119 -14 29 19 49 77 41 121 -14 71 -75 115
-163 115 -68 0 -112 -27 -150 -90 -18 -30 -33 -47 -33 -37 0 35 -32 94 -59
110 -44 26 -107 22 -137 -8z"/>
<path d="M5680 6752 c-21 -17 -22 -21 -11 -71 6 -31 11 -156 11 -307 0 -154 4
-263 10 -274 6 -11 27 -24 48 -31 31 -9 45 -8 76 5 37 15 38 18 31 49 -5 17
-11 162 -14 320 -6 288 -6 289 -30 308 -30 24 -92 25 -121 1z"/>
<path d="M6043 6756 c-33 -15 -41 -33 -24 -51 5 -6 57 -145 116 -310 58 -165
113 -307 121 -315 17 -18 118 -19 150 -2 14 7 52 94 127 287 115 294 123 320
113 359 -9 35 -69 53 -119 37 -33 -11 -36 -15 -35 -50 0 -34 -124 -506 -142
-539 -4 -8 -41 106 -86 264 -49 173 -87 287 -99 302 -25 29 -80 37 -122 18z"/>
<path d="M6840 6752 c-21 -17 -22 -21 -11 -71 6 -31 11 -156 11 -307 0 -154 4
-263 10 -274 6 -11 27 -24 48 -31 31 -9 45 -8 76 5 37 15 38 18 31 49 -5 17
-11 162 -14 320 -6 288 -6 289 -30 308 -30 24 -92 25 -121 1z"/>
<path d="M7375 6757 c-100 -33 -136 -70 -137 -139 -1 -88 88 -142 178 -108
l27 11 -20 22 c-30 32 -37 78 -19 120 11 28 23 38 54 48 107 32 161 -22 178
-177 l6 -61 -68 -7 c-257 -27 -398 -138 -365 -288 23 -101 153 -145 277 -93
43 18 106 76 129 119 24 45 35 46 35 4 1 -57 35 -117 76 -134 70 -29 160 4
165 61 5 48 0 54 -34 48 -55 -9 -60 6 -62 195 -3 201 -8 237 -45 295 -43 68
-99 91 -230 94 -67 2 -120 -2 -145 -10z m250 -436 c-28 -85 -109 -161 -170
-161 -41 0 -63 17 -74 55 -10 38 -2 82 23 120 22 33 100 67 170 74 58 6 61 5
64 -17 2 -12 -4 -44 -13 -71z"/>
<path d="M6450 5175 l0 -145 150 0 150 0 0 145 0 145 -150 0 -150 0 0 -145z"/>
<path d="M5940 5131 c-41 -60 -75 -115 -75 -122 0 -12 209 -169 226 -169 9 0
169 224 169 236 -1 10 -214 158 -232 161 -7 1 -47 -46 -88 -106z"/>
<path d="M5250 4725 l0 -145 150 0 150 0 0 145 0 145 -150 0 -150 0 0 -145z"/>
<path d="M6238 4662 l-116 -88 90 -117 c79 -103 91 -116 106 -105 148 109 212
163 208 175 -5 12 -165 223 -169 223 -1 0 -54 -40 -119 -88z"/>
<path d="M5250 4350 l0 -150 150 0 150 0 0 150 0 150 -150 0 -150 0 0 -150z"/>
<path d="M5630 4350 l0 -150 145 0 145 0 0 150 0 150 -145 0 -145 0 0 -150z"/>
<path d="M5250 3975 l0 -145 150 0 150 0 0 145 0 145 -150 0 -150 0 0 -145z"/>
<path d="M5630 3975 l0 -145 145 0 145 0 0 145 0 145 -145 0 -145 0 0 -145z"/>
<path d="M6000 3975 l0 -145 150 0 150 0 0 145 0 145 -150 0 -150 0 0 -145z"/>
</g>
</svg>
